<?xml version="1.0" encoding="utf-8"?>
<!-- Generator: Adobe Illustrator 25.2.1, SVG Export Plug-In . SVG Version: 6.00 Build 0)  -->
<svg version="1.1" id="Layer_1" xmlns="http://www.w3.org/2000/svg" xmlns:xlink="http://www.w3.org/1999/xlink" x="0px" y="0px"
	 viewBox="0 0 297.7 87.6" style="enable-background:new 0 0 297.7 87.6;" xml:space="preserve">
<style type="text/css">
	.st0{fill:#363636;}
</style>
<path class="st0" d="M56.3,37.4c1.2,1.6,1.7,11.2,1.6,19.9c-11.3-2.7-25-6.5-26.6-8c-1.2-1.7-1.7-11.2-1.6-19.9
	C40.9,32.1,54.6,35.9,56.3,37.4 M43.8,0C68,0,87.6,19.6,87.6,43.8S68,87.6,43.8,87.6S0,68,0,43.8S19.6,0,43.8,0L43.8,0 M73.3,60
	c2.2-2,2.2-32.3,0-35.3C70.5,22.3,34,13,31.2,14c-1,0.9-1.5,7.9-1.6,15.4c-7.7-1.8-14.3-3.1-15.4-2.7c-2.2,2-2.2,32.3,0,35.4
	c2.8,2.4,39.3,11.6,42.1,10.7c1-0.9,1.5-7.9,1.6-15.4C65.5,59.1,72.2,60.4,73.3,60 M161.4,19c10.7,0,19.1,5.8,19.1,20.7v7.7
	c0,15-8.5,20.7-19.1,20.7s-19.1-5.7-19.1-20.7v-7.7C142.3,24.7,150.8,19,161.4,19 M169.4,39.7c0-7.8-2.6-11-8-11s-7.9,3.3-7.9,11
	v7.7c0,7.8,2.5,11,7.9,11s8-3.3,8-11V39.7z M138.4,19.5h-32.1c-0.7,0-1.3,0.5-1.3,1.2l0,0v6.7c0,0.7,0.6,1.2,1.2,1.2l0,0h10.5v37.6
	c0,0.7,0.6,1.3,1.3,1.3h8.5c0.7,0,1.3-0.5,1.3-1.3l0,0V28.7h10.5c0.7,0,1.3-0.5,1.4-1.2v-6.6C139.8,20.1,139.2,19.5,138.4,19.5
	 M216.5,19.6h-32.1c-0.7,0-1.3,0.5-1.3,1.2l0,0v6.7c0,0.7,0.6,1.2,1.3,1.2l0,0h10.5v37.6c0,0.7,0.6,1.3,1.3,1.3h8.5
	c0.7,0,1.3-0.5,1.3-1.2c0,0,0,0,0-0.1V28.7h10.5c0.7,0,1.3-0.5,1.4-1.2v-6.6C217.8,20.1,217.2,19.5,216.5,19.6 M260.9,19.6h-9
	c-0.6,0-1.2,0.5-1.2,1.2L242.5,58c-0.1,0.7-0.3,1-0.9,1s-0.8-0.3-0.9-1l-8.1-37.3c-0.1-0.6-0.6-1.1-1.3-1.2h-9c-0.6,0-1.1,0.4-1.2,1
	c0,0.1,0.1,0.2,0.1,0.3l9.7,40.1c1.5,6.2,6.3,7.2,10.7,7.2s9.2-1,10.7-7.2l9.6-40.1c0-0.1,0-0.2,0.1-0.3
	C261.9,20.1,261.5,19.6,260.9,19.6C260.9,19.6,260.8,19.6,260.9,19.6 M289,40.9l-8.3-4.5c-3.5-1.9-4.3-2.7-4.3-4.5
	c0-2.3,1.4-3.4,5-3.4c4.4,0,11.9,0.6,13.7,0.7h0.1c0.5,0.1,1-0.3,1.1-0.9c0-0.1,0-0.1,0-0.2v-6.5c0-0.6-0.4-1.1-1-1.2
	c-4.5-0.9-9.1-1.4-13.6-1.4c-12.5,0-16.5,5.5-16.5,12.6c0,4.7,1.6,8.8,7.6,12.3l8.9,5.3c3.4,2,4.3,3,4.3,4.9c0,3.1-1.3,4.5-5.8,4.5
	c-2.5,0-9.6-0.5-12.3-0.8h-0.2c-0.6-0.1-1.1,0.4-1.2,1c0,0.1,0,0.2,0,0.3v6.3c0,0.7,0.6,1.1,1.3,1.3c4,1,8.1,1.5,12.2,1.4
	c13.1,0,17.6-7.3,17.6-14.2C297.7,48.8,295.7,44.5,289,40.9"/>
</svg>
